<?xml version="1.0" encoding="utf-8"?>

<!DOCTYPE svg PUBLIC "-//W3C//DTD SVG 1.1//EN" "http://www.w3.org/Graphics/SVG/1.1/DTD/svg11.dtd">
<!-- Uploaded to: SVG Repo, www.svgrepo.com, Generator: SVG Repo Mixer Tools -->
<svg fill="#000000" height="800px" width="800px" version="1.1" id="_x32_" xmlns="http://www.w3.org/2000/svg" xmlns:xlink="http://www.w3.org/1999/xlink" 
	 viewBox="0 0 512 512"  xml:space="preserve">
<!-- <style type="text/css">
	.st0{fill:#000000;}
</style> -->
<g>
	<path class="st0" d="M256,0C9.672,0,14.752,229.292,14.752,357.264c0,66.51,19.297,125.476,57.587,144.621
		c55.376,27.693,96.911-3.458,128.062-69.228c-20.768,10.384-73.02,3.468-73.02-41.342c0-64.027,0-131.723,0-131.723h257.24
		c0,0,0,67.696,0,131.723c0,44.81-52.254,51.725-73.021,41.342c31.151,65.77,72.686,96.921,128.062,69.228
		c38.29-19.144,57.587-78.111,57.587-144.621C497.248,229.292,502.328,0,256,0z"/>
</g>
</svg>